<svg xmlns="http://www.w3.org/2000/svg" width="56" height="62.002" viewBox="0 0 56 62.002"><g fill="#6d2dea" transform="translate(-4 -1)"><path d="M9 63h10a1 1 0 0 0 0-2H9a3 3 0 0 1-3-3V6a3 3 0 0 1 3-3h3.219l.811 3.243A1 1 0 0 0 14 7h14a1 1 0 0 0 .97-.757L29.781 3H33a3 3 0 0 1 3 3v29a1 1 0 0 0 2 0V6a5.006 5.006 0 0 0-5-5H9a5.006 5.006 0 0 0-5 5v52a5.006 5.006 0 0 0 5 5M27.219 5H14.781l-.5-2h13.438Z"/><path d="M30 32h1a3 3 0 0 0 3-3V12a3 3 0 0 0-3-3H11a3 3 0 0 0-3 3v17a3 3 0 0 0 3 3h11v6.15l-1.106-1.382a5.9 5.9 0 0 0-3.445-2.1l-.716-.143a3.711 3.711 0 0 0-3.416 6.2l3.888 4.679a4.66 4.66 0 0 1 1.032 2.327l.5 3.538a6.72 6.72 0 0 0 1.888 3.776A4.64 4.64 0 0 1 22 58.353V62a1 1 0 0 0 2 0v-3.647a6.63 6.63 0 0 0-1.955-4.72 4.7 4.7 0 0 1-1.323-2.645l-.5-3.538a6.67 6.67 0 0 0-1.474-3.322l-3.95-4.747a1.713 1.713 0 0 1 1.547-2.892l.716.143a3.9 3.9 0 0 1 2.276 1.385L22 41.351V45a1 1 0 0 0 2 0V26a2 2 0 0 1 4 0v13a1 1 0 0 0 .929 1l9.578.684A3.774 3.774 0 0 1 42 44.433v7.227a4.7 4.7 0 0 1-.494 2.091l-.8 1.6A6.7 6.7 0 0 0 40 58.34V62a1 1 0 0 0 2 0v-3.66a4.7 4.7 0 0 1 .494-2.091l.8-1.6A6.7 6.7 0 0 0 44 51.66v-7.227a5.78 5.78 0 0 0-5.351-5.747L30 38.068zm-4-10H15.09a5.992 5.992 0 0 1 11.838.12A4 4 0 0 0 26 22m-15 8a1 1 0 0 1-1-1V12a1 1 0 0 1 1-1h20a1 1 0 0 1 1 1v17a1 1 0 0 1-1 1h-1v-4a3.97 3.97 0 0 0-1-2.618V23a8.01 8.01 0 0 0-7-7.931V14a1 1 0 0 0-2 0v1.069a8.01 8.01 0 0 0-6.962 7.188A2 2 0 0 0 12 24v2a2 2 0 0 0 2 2h8v2zm11-4h-8v-2h8.556A3.95 3.95 0 0 0 22 26"/><path d="M50 39a10 10 0 1 0-10-10 10.01 10.01 0 0 0 10 10m0-18a8 8 0 1 1-8 8 8.01 8.01 0 0 1 8-8"/><path d="M48 34a1 1 0 0 0 .707-.293l7-7a1 1 0 0 0-1.414-1.414L48 31.586l-2.293-2.293a1 1 0 1 0-1.414 1.414l3 3A1 1 0 0 0 48 34"/></g></svg>